<svg xmlns="http://www.w3.org/2000/svg" viewBox="0 0 900 620"><defs><linearGradient id="sky" x1="0" y1="0" x2="0" y2="1"><stop stop-color="#b9d0c0"/><stop offset="1" stop-color="#e6e3d4"/></linearGradient></defs><rect width="900" height="620" fill="url(#sky)"/><circle cx="760" cy="90" r="48" fill="#f0df9e"/><path d="M0 345Q210 290 450 350T900 320v300H0z" fill="#7c946c"/><path d="M0 420Q230 365 470 430T900 390v230H0z" fill="#596e50"/><rect x="420" y="300" width="250" height="120" rx="18" fill="#32453a"/><rect x="470" y="245" width="115" height="95" rx="16" fill="#465f4f"/><rect x="490" y="263" width="75" height="49" rx="8" fill="#a6c0ae"/><circle cx="475" cy="430" r="65" fill="#262b28"/><circle cx="475" cy="430" r="31" fill="#91968e"/><circle cx="650" cy="430" r="48" fill="#262b28"/><circle cx="650" cy="430" r="22" fill="#91968e"/><path d="M670 325h120l58 62H670z" fill="#465f4f"/><circle cx="225" cy="224" r="64" fill="#bd8768"/><path d="M165 215q60-83 120 0v-34q-8-60-60-60t-60 60z" fill="#3a3128"/><path d="M142 290h165l31 215H112z" fill="#2b4f37"/><rect x="186" y="303" width="78" height="122" rx="12" fill="#f5f5ef"/><rect x="197" y="316" width="56" height="84" rx="6" fill="#d7e5da"/><path d="M145 330 74 402M305 329l80 56" stroke="#bd8768" stroke-width="30" stroke-linecap="round"/><text x="44" y="64" font-family="Arial" font-size="26" fill="#274331" font-weight="700">SERVICIO EN CAMPO</text><text x="44" y="98" font-family="Arial" font-size="18" fill="#49644f">Agro · maquinaria · recorridas</text></svg>